<svg xmlns="http://www.w3.org/2000/svg" xmlns:xlink="http://www.w3.org/1999/xlink" viewBox="0 0 936.97 443.11"><defs><style>.cls-1{fill:none;}.cls-2{fill:#f78d89;}.cls-3{fill:#6fa052;}.cls-4{clip-path:url(#clip-path);}.cls-5{fill:#bed0db;}.cls-6{fill:#16162b;}.cls-7{fill:#824b4b;}.cls-8{fill:#374d8e;}.cls-9{fill:#16284f;}.cls-10{fill:#6d1526;}.cls-11{fill:#ffa59d;}.cls-12{fill:#dd6478;}.cls-13{fill:#fff;}.cls-14{fill:#4b8227;}.cls-15{fill:#5798ff;}.cls-16{fill:#74b7ff;}.cls-17{fill:#307eef;}.cls-18{fill:#81c9ff;}.cls-19{fill:#449ef7;}.cls-20{fill:#ffa199;}.cls-21{fill:#2f335b;}.cls-22{fill:#ffcc4d;}.cls-23{fill:#3e3e63;}.cls-24{fill:#ed7781;}.cls-25{fill:#d96478;}.cls-26{fill:#17172b;}.cls-27{fill:#e1efed;}.cls-28{fill:#5d5e8c;}.cls-29{fill:#dda526;}.cls-30{fill:#b3cbe8;}.cls-31{fill:#7893c1;}.cls-32{fill:#ff9f97;}.cls-33{fill:#c5daef;}.cls-34{fill:#2c5364;}.cls-35{fill:#3063a0;}.cls-36{fill:#3e6caf;}.cls-37{fill:#0f2027;}.cls-38{fill:#213f49;}.cls-39{fill:#6083cb;}.cls-40{fill:#8cb4ef;}.cls-41{fill:#6694d6;}.cls-42{fill:#c1e4ea;}.cls-43{fill:#daf2f8;}.cls-44{fill:#cfeafd;}.cls-45{fill:#dcf2fe;}.cls-46{fill:#effbff;}.cls-47{fill:#f5fdff;}.cls-48{fill:#6279b7;}.cls-49{fill:#a1b8cb;}.cls-50{fill:#b2c1d4;}.cls-51{fill:#bfc7d9;}.cls-52{fill:#c3c8d9;}.cls-53{fill:#333360;}.cls-54{fill:#414170;}.cls-55{fill:#50507f;}.cls-56{fill:#666691;}.cls-57{fill:#8585b1;}.cls-58{fill:#6c6c9f;}.cls-59{fill:#f0fcff;}.cls-60{fill:#feffff;}.cls-61{fill:#fcffff;}.cls-62{fill:#a8ccc6;}.cls-63{fill:#c3e5df;}.cls-64{fill:#7373a0;}.cls-65{fill:#f7fcfb;}.cls-66{fill:#252542;}.cls-67{fill:#8b4632;}.cls-68{fill:#4d7ac0;}.cls-69{fill:#2e63af;}.cls-70{fill:#6f6fa3;}.cls-71{fill:#163038;}.cls-72{fill:#f9938f;}.cls-73{fill:#285699;}.cls-74{fill:#6190d6;}.cls-75{fill:#343256;}.cls-76{fill:#fa5a59;}.cls-77{fill:#ce4949;}.cls-78{fill:#c63e3e;}.cls-79{fill:#e8aa21;}.cls-80{fill:#e53535;}</style><clipPath id="clip-path" transform="translate(-0.04)"><rect class="cls-1" y="393" width="74.35" height="7.82"/></clipPath></defs><g id="Layer_2" data-name="Layer 2"><g id="Layer_1-2" data-name="Layer 1"><path class="cls-2" d="M26.9,255.9l.14.19c.07.07.12.15.19.22A47.82,47.82,0,0,0,31.4,261a59,59,0,0,0,5.32,4.59h0L38,266.62l.83.69,2.27-.87,1.57-.6.8-.3.78-.35A60,60,0,0,0,51,261.85c.54-.3,1.05-.62,1.57-.92s1-.62,1.49-.94l.74-.48.71-.49,1.39-1,1.31-1,.64-.5.62-.49c.4-.35.8-.68,1.2-1s.75-.68,1.12-1l1.08-1,.23-.23a9.41,9.41,0,0,0,4.69-2.39,10,10,0,0,0,3-5.6,1.73,1.73,0,0,0-2.26-1.93l-2.06.74-4.73,1.69c0-.61.11-1.87.19-3.06a.52.52,0,0,0-1-.23,22.89,22.89,0,0,0-1.46,6.35l-.16.08c-.35.24-.74.45-1.13.7s-.79.47-1.19.69l-1.24.7-.63.36c-.22.1-.43.22-.65.34l-1.32.69-1.38.68-.69.35-.72.33-1.45.67-1.48.65c-2,.84-4.12,1.68-6.3,2.4l-.11,0c-.84-.95-1.64-1.9-2.41-2.83-1.15-1.37-2.2-2.74-3.21-4.06l-.29-.37h0a25.22,25.22,0,0,1-8.23,6.09" transform="translate(-0.04)"/><path class="cls-3" d="M29.36,244.25s3.87,2.65,8.91,9.47l-6.82,7.35s-5.94-9.57-2.09-16.82" transform="translate(-0.04)"/><g class="cls-4"><path class="cls-5" d="M0,397c0,1.48,16.54,2.67,37,2.67s36.94-1.19,36.94-2.67S57.39,394.33,37,394.33,0,395.53,0,397" transform="translate(-0.04)"/></g><path class="cls-6" d="M49.19,394.16c-1.82-.86-2.77-4.59-3.57-6.18a17.65,17.65,0,0,1-.42-1.77c0-.79-2.25-2.92-3.22-1.32-1.91,3.16-4.53-1.83-4.39-.49.44,4-.15,12.34,1.28,12.82,3.07,1,17.29,2.45,17.52.91.13-.92-4.06-2.47-7.2-4" transform="translate(-0.04)"/><path class="cls-6" d="M19.41,388.68c0-.14.91-8,.91-8.24,0-.91-1.39-1.13-2.52.73-2.23,3.66-4.52,1.25-4.6,2.82-.3,6.08-2,11-.4,13.13,1.11,1.51,4.88,2.58,7.64,2.51s3.4-.86.68-5.93a14.63,14.63,0,0,1-1.71-5" transform="translate(-0.04)"/><path class="cls-7" d="M7.83,228.4,11.57,234c.87,1.3,1.85,2.69,3.34,3.19a3.65,3.65,0,0,0,3.9-1.14,14.15,14.15,0,0,1-5.57-4.44A14.86,14.86,0,0,0,11.13,229a3.28,3.28,0,0,0-3.3-.55" transform="translate(-0.04)"/><path class="cls-8" d="M11.15,387.54a12.42,12.42,0,0,0,1.66.59l.68.16a15.23,15.23,0,0,0,3.16.34,14.19,14.19,0,0,0,4.84-.83l5.82-75.5,6.18,50.42,3.19,26.09a13,13,0,0,0,2.65.26,13.7,13.7,0,0,0,8-2.52c-.23-3.37-.79-12.37-1.49-23.52-1.45-22.87-3.5-54.74-4.6-65.44a80.14,80.14,0,0,1-22.58,3.2h-.75c-1.15,0-2.27,0-3.39-.09-.22,0-.45,0-.67,0-.84,0-1.66-.1-2.48-.17,0,24.83-.15,85.42-.17,87" transform="translate(-0.04)"/><path class="cls-9" d="M12.81,388.13l.68.16c0-2.46.07-4.94.1-7.4.19-14.33.37-42.13.56-56.45q.11-7.8.22-15.61a8.73,8.73,0,0,0,4.24-8h-.75a8.06,8.06,0,0,1-3.48,7.13c0-2.42.06-4.81.09-7.22-.22,0-.45,0-.67,0,0,2.18-.07,4.38-.1,6.57,0,.36,0,.73,0,1.1s0,.56,0,.85c-.18,13.67-.36,40.81-.55,54.46q-.17,12.25-.32,24.48" transform="translate(-0.04)"/><path class="cls-10" d="M24.23,240.57s-3.8-2-9.85-.19l.32,3.12,8.33.12,1.69-1.27-.49-1.78" transform="translate(-0.04)"/><path class="cls-3" d="M4.44,262.47c.68,2.76,1.39,6.51,2.1,10.57,1,6.16,2.89,19,3.62,24.39l.06.42c0,.25.07.49.09.74.18,1.22.32,2.35.45,3.35A116.56,116.56,0,0,0,33,300.69l1.44-.22c1.48-.26,3-.52,4.43-.84h.06l2.64-.58c-1-3.08-2.69-12.07-3.47-15-.27-1-.53-2-.78-3-.14-.52-.26-1-.38-1.55-.63-2.6-1.18-5.12-1.67-7.53-.59-2.95-1.08-5.74-1.5-8.32l-4.41-19.36c-1-.37-2.11-.77-2.83-1l-1.49-.5c-2.24-.75-4.5-1.5-6.51-2.28L13.76,243l-.08.05L11,244.42c-2.34,1.22-4.76,2.54-6.23,4.73C2.24,253,3.35,258,4.44,262.47" transform="translate(-0.04)"/><path class="cls-11" d="M11.46,232.26c.59.64,1.34-1.67,1.79-.94s-.1,1.21.21,2,1.24,5.73,1.4,6.47l0,1.75c.34,1.71,2.14,2.09,1.79,3.84,3.26,0,5-1.09,7.94-2.49-.32-.52-.71-1-1-1.58a6.1,6.1,0,0,1-.29-.57,14.33,14.33,0,0,1-.53-1.37c-.14-.4-.35-1.82-.46-2.22s-.15-.63-.22-1a16.31,16.31,0,0,1-.33-2.19,4.92,4.92,0,0,0-.64-.57c-2.41-1.89-6.3-2.16-9.58-1.18" transform="translate(-0.04)"/><path class="cls-12" d="M14.89,233.47s3.05,6.67,8.62,7.84a6.1,6.1,0,0,1-.29-.57,14.33,14.33,0,0,1-.53-1.37c-.14-.4-.35-1.82-.46-2.22s-.15-.63-.22-1a16.31,16.31,0,0,1-.33-2.19,4.92,4.92,0,0,0-.64-.57l-6.15,0" transform="translate(-0.04)"/><path class="cls-13" d="M23,243.62l2.9,3.21a3.4,3.4,0,0,0,.6-3.59l-2.3-2.67s.6,2.8-1.2,3.05" transform="translate(-0.04)"/><path class="cls-13" d="M14.38,240.38A12.24,12.24,0,0,0,23,243.62l-1.51,4.13a13.22,13.22,0,0,1-8.4-4.44l1.26-2.93" transform="translate(-0.04)"/><path class="cls-7" d="M18.62,219.7a7.94,7.94,0,0,1,1.57,6.41c-.74-1.42-1.46-2.79-2.2-4.22a2.36,2.36,0,0,1-.35-2.11.69.69,0,0,1,.52-.4c.22,0,.51.1.46.32" transform="translate(-0.04)"/><path class="cls-11" d="M17.8,219.23a14.72,14.72,0,0,0,4.35,8.24c1.3,1.24,2.91,2.38,3.33,4.12.55,2.29-1.44,4.64-3.75,5.11a8.67,8.67,0,0,1-6.61-1.86A16.26,16.26,0,0,1,8.6,224a18,18,0,0,1,9.2-4.81" transform="translate(-0.04)"/><path class="cls-7" d="M11.91,231.39a6.78,6.78,0,0,0-2.31-6.76,19.23,19.23,0,0,0,5.83-1.77,6.91,6.91,0,0,0,3.68-4.57,5.17,5.17,0,0,0-3.92-6,2.69,2.69,0,0,0-2.39.42,2.8,2.8,0,0,0-.78,1.74,15.2,15.2,0,0,1-.28,1.93c-.45,1.64-2,2.75-3.33,3.73s-2.88,2.11-3.29,3.75a4.88,4.88,0,0,0,2,4.78,14.61,14.61,0,0,0,4.84,2.73" transform="translate(-0.04)"/><path class="cls-11" d="M11.86,230.86a1,1,0,0,0-1.07-.7,1.26,1.26,0,0,0-1,.89A1.78,1.78,0,0,0,10,232.4a3.23,3.23,0,0,0,.91,1,3.11,3.11,0,0,0,1.86.79,1.67,1.67,0,0,0,1.63-1c-1-.61-2.26-1.15-2.52-2.33" transform="translate(-0.04)"/><path class="cls-12" d="M19.64,229.79c0,.07.18.08.39,0a1.38,1.38,0,0,0,.7-.67v0a1.47,1.47,0,0,0,.14-.65,1,1,0,0,0-.18-.59l-.12-.06,0,0a3.54,3.54,0,0,0-.07.46,2.74,2.74,0,0,1-.15.52l0,.07a2.4,2.4,0,0,1-.46.64c-.13.13-.21.22-.19.28" transform="translate(-0.04)"/><path class="cls-14" d="M8.19,283.17a31.23,31.23,0,0,0,4.38,4.67c.32.29-.1.81-.43.52a31.81,31.81,0,0,1-4.5-4.78c-.27-.35.28-.76.55-.41" transform="translate(-0.04)"/><path class="cls-9" d="M27.32,306.62a.34.34,0,0,1,.68,0,68.61,68.61,0,0,1-.42,8.6c0,.43-.73.44-.68,0a70.56,70.56,0,0,0,.42-8.6" transform="translate(-0.04)"/><path class="cls-9" d="M27.45,309.63a10.77,10.77,0,0,0,3.1-3.45.34.34,0,0,1,.58.34,11.69,11.69,0,0,1-3.33,3.7c-.35.26-.7-.33-.35-.59" transform="translate(-0.04)"/><path class="cls-13" d="M18.6,231.69a9.9,9.9,0,0,0,3.81-2.12.41.41,0,0,1,.65.09c1.93,4.5-2.92,4.15-4.52,2.65-.23-.23-.26-.53.06-.62" transform="translate(-0.04)"/><path class="cls-15" d="M58.59,195.18a15.9,15.9,0,0,0-16.3,15.48L40.82,266a15.9,15.9,0,1,0,31.78.84l1.47-55.29a15.91,15.91,0,0,0-15.48-16.32" transform="translate(-0.04)"/><path class="cls-16" d="M66,239.74l.64-24.21a1.78,1.78,0,0,1,1.79-1.74h0a1.79,1.79,0,0,1,1.74,1.83l-.63,23.86-1.24.11c-.78.06-1.55.11-2.34.15" transform="translate(-0.04)"/><path class="cls-17" d="M73.34,239.08l-.74,27.71h0a15.56,15.56,0,0,1-.58,3.89c-.07.25-.15.5-.23.74-.16.48-.36,1-.55,1.42s-.44.92-.69,1.36c-.12.21-.25.44-.39.64-.27.44-.56.85-.86,1.25a16.08,16.08,0,0,1-7.21,5.25,15.71,15.71,0,0,1-5.79.92,14.18,14.18,0,0,1-1.61-.12l-.78-.12a15.06,15.06,0,0,1-1.51-.35,15.61,15.61,0,0,1-6-3.19h0c-.38-.32-.74-.66-1.09-1a16.05,16.05,0,0,1-3.58-5.72c-.16-.48-.32-1-.44-1.46v0a16.08,16.08,0,0,1-.47-4.3v-.33l.22-8.33.2-7.38.31-11.68a102.16,102.16,0,0,0,15.85,1.62c2.92.09,5.78,0,8.62-.12,1.21-.06,2.4-.14,3.59-.26s2.48-.24,3.72-.4" transform="translate(-0.04)"/><path class="cls-18" d="M68.37,239.59l1.24-.11-1.24.11" transform="translate(-0.04)"/><path class="cls-19" d="M67.17,265.48h0a1.79,1.79,0,0,1-1.74-1.84l.63-23.9c.78,0,1.56-.08,2.34-.15l1.24-.11L69,263.73a1.8,1.8,0,0,1-1.8,1.75" transform="translate(-0.04)"/><path class="cls-11" d="M15.76,265.81l.18.13.24.18a47.66,47.66,0,0,0,5.24,3.37,56.33,56.33,0,0,0,6.34,3h0l1.53.7,1,.45,2-1.43,1.36-1,.69-.51.67-.53a61.28,61.28,0,0,0,5.65-5l1.27-1.29c.41-.44.8-.87,1.19-1.31.21-.21.4-.43.59-.65l.56-.66L45.3,260l1-1.32c.16-.21.33-.42.49-.64s.31-.42.46-.65c.3-.43.6-.86.9-1.27s.55-.86.81-1.27.54-.82.78-1.23l.17-.29a9.46,9.46,0,0,0,3.89-3.53,10,10,0,0,0,1.41-6.19,1.76,1.76,0,0,0-.57-1.12,1.69,1.69,0,0,0-2.12-.15l-1.79,1.25-4.12,2.87c-.14-.59-.39-1.82-.62-3a.52.52,0,0,0-1,0,23,23,0,0,0,.25,6.52l-.13.11c-.28.33-.6.65-.91,1s-.64.67-1,1-.68.66-1,1c-.19.17-.35.33-.52.51l-.54.5-1.09,1-1.15,1c-.19.18-.39.36-.58.52s-.4.35-.61.51l-1.21,1-1.27,1c-1.73,1.34-3.53,2.7-5.45,4l-.09.07c-1.06-.7-2.08-1.4-3.07-2.1-1.47-1-2.84-2.07-4.16-3.07l-.38-.29h0a25.51,25.51,0,0,1-6.33,8" transform="translate(-0.04)"/><path class="cls-12" d="M31,261.85a11.46,11.46,0,0,0-3.27,2.73c-.27.32.19.79.46.46a10.87,10.87,0,0,1,3.14-2.62.33.33,0,0,0-.33-.57" transform="translate(-0.04)"/><path class="cls-14" d="M13.71,267.34c.67-.51,1.31-1,1.93-1.62a29.55,29.55,0,0,0,6.29-8c-.61-.52-1.24-1-1.89-1.49-2.05-1.54-4.21-2.9-6.19-4.55-.34-.28.15-.75.49-.48,1.71,1.44,3.59,2.66,5.39,4a5.82,5.82,0,0,0-.47-1.61c-.18-.39.4-.75.58-.36a7.25,7.25,0,0,1,.63,2.51c.72.53,1.44,1.09,2.11,1.69a.29.29,0,0,1,0,.43,1.57,1.57,0,0,1-.14.25,30.37,30.37,0,0,1-6.3,8.06c-.68.62-1.39,1.22-2.14,1.78-.34.26-.66-.31-.33-.56" transform="translate(-0.04)"/><path class="cls-5" d="M666.56,396.89c0,3.25-64.35,5.89-143.74,5.89-44.94,0-85.07-.85-111.42-2.17-24.61,3.47-82.57,5.9-150.15,5.9-44.12,0-84.13-1-113.45-2.73-8.89,1.7-21,2.73-34.41,2.73-27.24,0-49.33-4.31-49.33-9.62s22.09-9.63,49.33-9.63A193.2,193.2,0,0,1,147.78,390c29.31-1.69,69.34-2.73,113.47-2.73,67.58,0,125.54,2.44,150.15,5.9,26.35-1.32,66.48-2.17,111.42-2.17,79.39,0,143.74,2.65,143.74,5.9" transform="translate(-0.04)"/><path class="cls-20" d="M423.94,131.52l-8.26,8.19,5.53,5.17,8.13-6.39-5.4-7" transform="translate(-0.04)"/><path class="cls-21" d="M434.62,131a12.34,12.34,0,0,0,2.61,7.78,17.89,17.89,0,0,0,6.27,5A24.24,24.24,0,0,0,459.12,146a19.61,19.61,0,0,0,9.61-4.77,15.47,15.47,0,0,0,4.88-9.87,12.16,12.16,0,0,0-3.93-10.14c-2.72-2.26-6.32-2.81-9.63-3.86s-6.82-.37-7.77-3.92c-.51-1.91-.17-4-.57-5.92a7.55,7.55,0,0,0-6.2-6c-3.66-.46-5.79.78-7,3.66,0,0-7.69,1.54-3.82,13.36l.27.79a11.28,11.28,0,0,1,.85,4c0,2.58-1.07,5-1.17,7.62" transform="translate(-0.04)"/><path class="cls-20" d="M461.48,260.46c-.33.15-1.06-.69-2.18-2.33-.56-.81-1.21-1.82-1.91-3s-1.53-2.57-2.34-4.14-1.72-3.26-2.6-5.13-1.82-3.89-2.75-6c-.47-1.07-.9-2.19-1.36-3.32s-.9-2.31-1.32-3.51c-.89-2.39-1.69-4.91-2.48-7.49s-1.42-5.17-2-7.66c-.28-1.25-.51-2.48-.72-3.69s-.41-2.4-.57-3.56c-.29-2.33-.53-4.55-.6-6.64a53.6,53.6,0,0,1,0-5.82,33.56,33.56,0,0,1,.56-4.8,18.09,18.09,0,0,1,1-3.62c.81-2,1.81-3.08,2.9-3.1s2.15,1,3.07,2.89a28.74,28.74,0,0,1,1.32,3.39c.42,1.32.77,2.82,1.16,4.47s.69,3.47,1,5.41.68,4,1,6.2c.63,4.4,1.32,9.21,2,14.27.4,2.52.75,5,1.16,7.41.18,1.2.39,2.38.6,3.53s.38,2.29.6,3.39c.42,2.21.8,4.32,1.22,6.28s.81,3.8,1.17,5.48c.74,3.25,1.34,5.94,1.8,8s.49,3,.17,3.17" transform="translate(-0.04)"/><path class="cls-20" d="M426.81,261.35c-.35.08-.92-.89-1.71-2.7-.41-.9-.86-2-1.32-3.33s-1-2.81-1.53-4.49-1.1-3.53-1.62-5.54-1.06-4.15-1.59-6.43c-.26-1.14-.48-2.32-.71-3.52s-.48-2.44-.67-3.7c-.43-2.51-.75-5.13-1-7.82s-.45-5.33-.5-7.89c-.05-1.28-.06-2.53,0-3.76s0-2.42.1-3.6c.14-2.34.31-4.56.62-6.63a53.41,53.41,0,0,1,1.08-5.71,33.53,33.53,0,0,1,1.44-4.63,18.68,18.68,0,0,1,1.66-3.38c1.16-1.8,2.34-2.68,3.41-2.5s1.93,1.41,2.49,3.41a24.85,24.85,0,0,1,.67,3.57c.17,1.37.24,2.91.32,4.61s0,3.53,0,5.51-.09,4.07-.19,6.28l-.65,14.39c-.06,2.56-.18,5.07-.22,7.49,0,1.22-.07,2.42-.07,3.59s0,2.32,0,3.44c0,2.24,0,4.39,0,6.4s.09,3.88.15,5.6c.11,3.33.21,6.08.29,8.18s-.07,3.07-.42,3.16" transform="translate(-0.04)"/><path class="cls-22" d="M436,124s-5.27.65-12,7.48c0,0-.46,4.23,4.22,8.19L436,124" transform="translate(-0.04)"/><path class="cls-22" d="M427.25,155.5h0a29.18,29.18,0,0,0,5.72.58,28.35,28.35,0,0,0,7.48-.91A33.54,33.54,0,0,1,445.51,142l1.88-2.61,2.7,2.35a9.43,9.43,0,0,0,6.83-6.16c-3.23-4.78-7.55-9.46-9.94-11.13a6.22,6.22,0,0,0-1.87-.9,6,6,0,0,0-1.19-.23h-.13c-2.12-.13-3.94.41-6.07.48a10.66,10.66,0,0,0-1.7.19H436l-.54.22c-2.26,1.07-10.47,6.68-8.16,31.24" transform="translate(-0.04)"/><path class="cls-20" d="M436.54,127.57a3.5,3.5,0,0,0,2.72.76,6.79,6.79,0,0,0,4.15-1.91,6.64,6.64,0,0,0,1.7-2.83,6,6,0,0,0-1.19-.23h-.13c-2.12-.13-3.94.41-6.07.48a10.66,10.66,0,0,0-1.7.19,4.4,4.4,0,0,0-.18.62,3.16,3.16,0,0,0,.7,2.92" transform="translate(-0.04)"/><path class="cls-23" d="M453,207.89a37.37,37.37,0,0,1-12.1,4.7,51.93,51.93,0,0,1-12,1,57,57,0,0,1-12.59-1.69c-.83-38.56,9.49-54.4,10.8-56.24l.05-.07.07-.1,0,0,7.45-.16,3.52-.08,2.23-.06,3.54,6.39a28.34,28.34,0,0,1,1.8,3.51,47.51,47.51,0,0,1,2.85,10.64c.46,2.69.81,5.39,1.08,8.09.4,4,1.34,13,3.25,24.09" transform="translate(-0.04)"/><path class="cls-20" d="M445.5,112.48a28.94,28.94,0,0,0-.81,3.4c-.06.35-.11.69-.16,1a1.66,1.66,0,0,1,0,.22,23.82,23.82,0,0,0-.26,3c0,.28,0,.54,0,.82v0c0,.23,0,.47,0,.7a28.15,28.15,0,0,0,.28,3,6,6,0,0,1-3.75,1.61,6.54,6.54,0,0,1-4-1.2,22.39,22.39,0,0,0,2.12-4.45l0,0a1.33,1.33,0,0,0,.05-.19c.06-.16.09-.32.14-.48s.17-.6.25-.9l0-.1c.1-.4.19-.8.27-1.21a3.4,3.4,0,0,0,.07-.34c.07-.34.12-.69.18-1l0-.19c.05-.29.08-.58.11-.87a16.41,16.41,0,0,1,5.49-2.88" transform="translate(-0.04)"/><path class="cls-24" d="M443.92,116.42s-1.3,3.64-5,4.07c.06-.16.09-.32.14-.48s.17-.6.25-.9l0-.1c.1-.4.19-.8.27-1.21a3.4,3.4,0,0,0,.07-.34c.07-.34.12-.69.18-1l0-.19,4,.19" transform="translate(-0.04)"/><path class="cls-20" d="M436.15,116.76c.89,1.38,3.35,1.76,4.94,1.38a6.29,6.29,0,0,0,3.67-2.46l.18-.24a3.82,3.82,0,0,1,.11-.57c.13-.52.3-1,.47-1.52a5.92,5.92,0,0,0,.42-2.58,4.39,4.39,0,0,0-1.63-2.71,35,35,0,0,0-4.55-2.47.23.23,0,0,0-.31.13l-.73,1.92a6.06,6.06,0,0,1-.32.84c-.61,1.39-1.51,2.65-2.07,4.06s-1,2.94-.18,4.22" transform="translate(-0.04)"/><path class="cls-20" d="M445.55,112.9c.11-.31.29-.64.61-.69a.81.81,0,0,1,.75.49,2,2,0,0,1-2.41,2.88c.29-.89.74-1.8,1.05-2.68" transform="translate(-0.04)"/><path class="cls-25" d="M439.52,112.37s-.12.08-.29,0a1,1,0,0,1-.57-.43v0a1,1,0,0,1-.16-.46.69.69,0,0,1,.07-.45l.09-.06,0,0c0,.06,0,.19.09.33a1.72,1.72,0,0,0,.16.38l0,0a2.11,2.11,0,0,0,.39.43c.11.09.18.14.17.19" transform="translate(-0.04)"/><path class="cls-13" d="M441,113.51a8.06,8.06,0,0,1-3.39-1,.32.32,0,0,0-.49.18c-.69,3.9,3.06,2.73,4,1.25.15-.22.12-.46-.15-.48" transform="translate(-0.04)"/><path class="cls-20" d="M449.82,211.12a7.76,7.76,0,0,1-.13-.82,3.44,3.44,0,0,1,.21.53c0,.08.05.17.07.24l-.08,0Zm1.64-.56a22.53,22.53,0,0,0-1.09-2.52c-.54-1.3-2.35-4.9-2.55-4.15a26.76,26.76,0,0,0-.69,7.47.64.64,0,0,0,.07.31l0,.08c-.24.49,0,1.24.67,1.19,1.49-.14,4.23-.15,3.63-2.38" transform="translate(-0.04)"/><path class="cls-20" d="M417.59,147.88c-4.49-.9-7.2-1.22-10.24-4.64A21.36,21.36,0,0,1,402,130.88c5.73,6.29,9.9,10.71,15.63,17" transform="translate(-0.04)"/><path class="cls-26" d="M437.42,162.93a13.22,13.22,0,0,0,7.79,10.37c.49.21.8-.57.31-.78a12.33,12.33,0,0,1-7.27-9.72.42.42,0,0,0-.83.13" transform="translate(-0.04)"/><path class="cls-27" d="M380.09,105.89a10.45,10.45,0,0,1-2.45,5.42c-5.31,6.1-17,4.59-26.09-3.35a27.81,27.81,0,0,1-8.88-13.65,16.68,16.68,0,0,0,3.56-2.71c1.65-1.64,3.38-3.77,5.68-3.55,3,.28,4,4.09,5.49,6.71a10.3,10.3,0,0,0,8.11,5.08,29.33,29.33,0,0,0,6.77-.85c2.25-.37,4.69-.49,6.71.58a4.42,4.42,0,0,1,.83.55,15.37,15.37,0,0,1,.27,5.77" transform="translate(-0.04)"/><path class="cls-28" d="M429.11,329.9c-1.42-16.77-2.84-39.46-4.26-56.22h45.72c1.42,16.76,2.84,39.45,4.26,56.22ZM424.31,267c-.9-10.55-3.73-50-4.25-56.13h45.7c.62,7.29,3.27,45.21,4.06,53.89L470,267Zm42.88-109.92a3,3,0,0,0-5.92.49c.78,9.23,3,35.75,3.92,46.51H419.48q-2-23.51-4-47a3,3,0,0,0-5.9.49c.78,9.22,17.19,222.82,18.46,236.26,0,.19,0,.38,0,.56.36,4.25,6.32,4.29,5.95,0-.94-11.09-3.86-51.59-4.38-57.76h45.71c.32,3.62,3.07,43.76,4.34,57.2,0,.19,0,.38,0,.56.37,4.25,6.32,4.29,6,0-.94-11.09-17.21-221.6-18.53-237.3" transform="translate(-0.04)"/><path class="cls-20" d="M465.29,267.16A38,38,0,0,1,452.07,271c-.92.11-1.83.2-2.71.25-.64,0-1.16-.7-.76-1.2a9.07,9.07,0,0,1,2.92-2.2c.82-.45,1.64-.81,2.34-1.25l.07,0a9.8,9.8,0,0,0,2.52-1.86,7.08,7.08,0,0,0,2-4.84,15.31,15.31,0,0,0-.85-5.14,4.59,4.59,0,0,0,2.8-1,35.39,35.39,0,0,1,3.74,8.47c.1.28.17.56.25.83a30.71,30.71,0,0,1,.86,4.13" transform="translate(-0.04)"/><path class="cls-26" d="M465.29,267.16A38,38,0,0,1,452.07,271c-.92.11-1.83.2-2.71.25-.64,0-1.16-.7-.76-1.2a9.07,9.07,0,0,1,2.92-2.2,13.8,13.8,0,0,0,7.39-1.66,22.76,22.76,0,0,0,5.27-4c.1.28.17.56.25.83a30.71,30.71,0,0,1,.86,4.13" transform="translate(-0.04)"/><path class="cls-20" d="M429.26,267.15a38.29,38.29,0,0,1-13.7,1.33c-.92-.05-1.83-.14-2.71-.25-.64-.08-1-.91-.53-1.31a8.89,8.89,0,0,1,3.27-1.63c.9-.29,1.77-.49,2.53-.8l.09,0a9.78,9.78,0,0,0,2.81-1.37,7,7,0,0,0,2.89-4.37,15.5,15.5,0,0,0,.11-5.22,4.72,4.72,0,0,0,2.94-.43,36.49,36.49,0,0,1,2.12,9l.09.86a31.64,31.64,0,0,1,.09,4.22" transform="translate(-0.04)"/><path class="cls-26" d="M429.26,267.15a38.29,38.29,0,0,1-13.7,1.33c-.92-.05-1.83-.14-2.71-.25-.64-.08-1-.91-.53-1.31a8.89,8.89,0,0,1,3.27-1.63,13.78,13.78,0,0,0,7.58-.28,23.15,23.15,0,0,0,5.91-2.94l.09.86a31.64,31.64,0,0,1,.09,4.22" transform="translate(-0.04)"/><path class="cls-29" d="M429.38,132.17c-.38,1.87-1.66,3.36-2.18,5.19a6.49,6.49,0,0,0,.48,4.62c.13.29.55,0,.42-.24-1.75-3.81,1.06-6,1.75-9.44.06-.32-.41-.45-.47-.13" transform="translate(-0.04)"/><path class="cls-29" d="M443.07,140.89a4.36,4.36,0,0,1-1.93,2.19,15.81,15.81,0,0,1-2.55.62.25.25,0,0,0,.13.48,10.68,10.68,0,0,0,3-.86,5.33,5.33,0,0,0,1.74-2.18c.15-.28-.28-.53-.43-.25" transform="translate(-0.04)"/><path class="cls-29" d="M448.87,140.48c-.74-.3-1.34-1.22-1.82-1.83s-1-1.34-1.46-2c-.18-.26-.61,0-.43.25a25.06,25.06,0,0,0,1.73,2.36,5.19,5.19,0,0,0,1.84,1.74c.3.12.42-.36.14-.48" transform="translate(-0.04)"/><path class="cls-30" d="M392.42,108.19c-.17.22-.34.45-.52.65a30.25,30.25,0,0,1-2.08,2.32,34.54,34.54,0,0,1-3,2.61,31.15,31.15,0,1,1,5.56-5.58" transform="translate(-0.04)"/><path class="cls-31" d="M387.89,105.36c-.58.7-1.19,1.38-1.84,2a25.66,25.66,0,1,1,1.84-2" transform="translate(-0.04)"/><path class="cls-27" d="M387.89,105.36c-.58.7-1.19,1.38-1.84,2A25.75,25.75,0,0,1,342.72,83.5,7.43,7.43,0,0,1,349,85.11c2.06,1.86,3,4.78,5.25,6.39,3.08,2.23,7.35,1.23,10.93-.06s7.53-2.78,11-1.29c2.57,1.1,4.26,3.59,5.51,6.1s2.23,5.19,4,7.31a9.15,9.15,0,0,0,2.11,1.8" transform="translate(-0.04)"/><path class="cls-30" d="M447.05,163.52l-4.91,4.91a4.7,4.7,0,0,1-6.84-.2l-46.21-52-2.23-2.49-.93-1.06,5.44-5.45.9.8.15.13,54.43,48.49a4.69,4.69,0,0,1,.2,6.84" transform="translate(-0.04)"/><path class="cls-20" d="M402.67,134.94a6.46,6.46,0,0,1-.83-7.42,5.68,5.68,0,0,1,4.08,2.72,10.41,10.41,0,0,0-1.74,5.93c-.45-.58-1-.68-1.51-1.23" transform="translate(-0.04)"/><path class="cls-20" d="M439.53,157.73l1.92,2.59s14.45-2.48,20.76-6.95l.14-.1a2.76,2.76,0,0,0,1-2.74c-.51-5.28-3.45-10.17-6.65-14.43a9.48,9.48,0,0,1-5.42,5.33c1,1.32,4.09,5.21,5.41,7a83.29,83.29,0,0,1-7.26,4.62,64,64,0,0,1-9.94,4.69" transform="translate(-0.04)"/><path class="cls-24" d="M457.28,147.85q-1.66,1.22-3.45,2.28c-.3.17,0,.64.32.46,1.18-.71,2.32-1.46,3.44-2.28.29-.21,0-.68-.31-.46" transform="translate(-0.04)"/><path class="cls-32" d="M433.22,160.85a15.4,15.4,0,0,0,3.47,2.07,3.41,3.41,0,0,0,2.13.36,4,4,0,0,0,1.41-.82c.66-.54,3.51-2.7,4.17-3.24l-.8-2.17c-1.43-.88-5.8-1.49-7.43-1.87a.21.21,0,0,0-.26.24c.15.81.55,1.09,2.26,1.9l-5,2a1,1,0,0,0-.47.31c-.31.39.11.93.51,1.25" transform="translate(-0.04)"/><path class="cls-27" d="M370.78,184.63c3.21,21.71,9.92,36.46,9.92,36.46h-24c.67-4.81,1.2-9.51,1.62-14.09a1.91,1.91,0,0,0,1.46-.5,1.85,1.85,0,0,0,.1-2.63,1.77,1.77,0,0,0-1.24-.6q.48-6.08.71-11.88a.93.93,0,0,0,.78-.25,1,1,0,0,0,.05-1.36.93.93,0,0,0-.76-.3,275,275,0,0,0-2.63-48.82.95.95,0,0,0,.53-1.61.94.94,0,0,0-.82-.29c-4.38-28.36-11.86-44.45-11.86-44.45l37.43,11.58a116.81,116.81,0,0,0-9.49,26,2.09,2.09,0,0,0-1.61.55,2.13,2.13,0,0,0-.12,3,2.23,2.23,0,0,0,.82.56,131.69,131.69,0,0,0-2.06,14.34,1.61,1.61,0,0,0-1.69.32,1.64,1.64,0,0,0-.09,2.32,1.61,1.61,0,0,0,1.55.48,149.35,149.35,0,0,0,1.14,29.32.89.89,0,0,0-.5.23,1,1,0,0,0-.05,1.37.92.92,0,0,0,.82.29" transform="translate(-0.04)"/><path class="cls-13" d="M371.16,114.34l8.21-3.92-8.71,2.64-3.92-8.21,2.66,8.71-8.22,3.92,8.71-2.65,3.92,8.22-2.65-8.71" transform="translate(-0.04)"/><path class="cls-13" d="M358.32,152l6.62,1.63-6.31-2.6,1.63-6.62-2.59,6.31-6.62-1.63,6.31,2.6-1.64,6.62,2.6-6.31" transform="translate(-0.04)"/><path class="cls-13" d="M372.71,194.76l9.67,2.37-9.2-3.78,2.37-9.67-3.79,9.21-9.65-2.37,9.19,3.78L368.93,204l3.78-9.21" transform="translate(-0.04)"/><path class="cls-27" d="M374.27,137.84a1,1,0,1,0-.06,1.36,1,1,0,0,0,.06-1.36" transform="translate(-0.04)"/><path class="cls-27" d="M372,155.43a1,1,0,1,0-1.42,1.3,1,1,0,0,0,1.42-1.3" transform="translate(-0.04)"/><path class="cls-27" d="M356.68,199.9a1.35,1.35,0,0,0-1.9-.08,1.34,1.34,0,0,0,1.82,2,1.35,1.35,0,0,0,.08-1.89" transform="translate(-0.04)"/><path class="cls-27" d="M377.55,203.31a1,1,0,1,0-.05,1.37,1,1,0,0,0,.05-1.37" transform="translate(-0.04)"/><path class="cls-27" d="M356.35,160.63a1,1,0,0,0-1.36,0,1,1,0,0,0-.05,1.37,1,1,0,0,0,1.41-1.32" transform="translate(-0.04)"/><path class="cls-27" d="M354,132.11a1.33,1.33,0,1,0-.08,1.89,1.34,1.34,0,0,0,.08-1.89" transform="translate(-0.04)"/><path class="cls-33" d="M412.63,131.58q11.73,10.71,23.43,21.42c.94.85,2.34-.54,1.4-1.4L414,130.18c-.93-.85-2.34.54-1.4,1.4" transform="translate(-0.04)"/><path class="cls-13" d="M356.52,93.34l6.8-.34-6.77-.68-.34-6.81-.69,6.78-6.8.34,6.78.68.33,6.81.69-6.78" transform="translate(-0.04)"/><path class="cls-34" d="M278.62,397.57a970,970,0,0,1-123.89,0c-44.09-5.92-43.43-30.94-43.43-30.94V144.13c2.64-32.26,35.33-44.7,35.33-44.7,27.43-13.1,70.05-10.06,70.05-10.06s42.61-3,70,10.06c0,0,32.69,12.44,35.33,44.7v222.5s.65,25-43.43,30.94" transform="translate(-0.04)"/><path class="cls-35" d="M216.68,62.55c-40.36,0-73.09,6.3-73.09,14.08V99.09a2,2,0,0,0,3,1.66c9-5.81,37-10,70.05-10s61,4.24,70,10a2,2,0,0,0,3-1.66V76.63c0-7.78-32.72-14.08-73.07-14.08" transform="translate(-0.04)"/><path class="cls-36" d="M216.68,57.31c-41,0-74.24,6.4-74.24,14.3V94.43a2,2,0,0,0,3.09,1.68c9.13-5.9,37.53-10.21,71.15-10.21s62,4.31,71.14,10.21a2,2,0,0,0,3.09-1.68V71.61c0-7.9-33.23-14.3-74.23-14.3" transform="translate(-0.04)"/><path class="cls-34" d="M216.68,51.31c-41.85,0-75.77,6.53-75.77,14.59V89.2a2,2,0,0,0,3.14,1.71c9.33-6,38.31-10.42,72.63-10.42S280,84.89,289.3,90.91a2,2,0,0,0,3.14-1.71V65.9c0-8.06-33.92-14.59-75.76-14.59" transform="translate(-0.04)"/><path class="cls-37" d="M322.05,160.05V350.73c-34,1.66-69.26,2.53-105.37,2.53s-71.36-.87-105.38-2.53V160.05A515,515,0,0,1,216.68,149.5a514.89,514.89,0,0,1,105.37,10.55" transform="translate(-0.04)"/><path class="cls-38" d="M216.68,345.1c-36.11,0-71.36-.86-105.38-2.52v-6.91c34,1.65,69.27,2.52,105.38,2.52,27.26,0,54-.49,80.15-1.45v6.91c-26.12,1-52.89,1.45-80.15,1.45m92.43-1.93V340c.85.39,1.68.79,2.48,1.19l.1,1.87-2.58.11" transform="translate(-0.04)"/><path class="cls-38" d="M322.05,176.13c-4.26-.88-8.58-1.73-12.94-2.52v-8.88q6.54,1.17,12.94,2.52v8.88m-210.75,0v-8.88a515.67,515.67,0,0,1,105.38-10.56,530.43,530.43,0,0,1,80.15,6v8.9a529.1,529.1,0,0,0-80.15-6A515.69,515.69,0,0,0,111.3,176.13" transform="translate(-0.04)"/><path class="cls-39" d="M309.11,345.44a67.73,67.73,0,0,0-9.07-.6c-1.08,0-2.15,0-3.21.07v-1.26c4.11-.14,8.2-.31,12.28-.48v2.27m-12.28-8.7v-1.55l2.39.81,1.64.59c-1.35.05-2.68.11-4,.15m12.28-5c-2.2-1.16-4.54-2.25-7-3.29-1.51-.61-3.05-1.25-4.65-1.78l-.63-.22V171.57q6.21.94,12.28,2V221h-5.48l.81,6.37a2.51,2.51,0,0,0,1.26,1.87h-.1l.26,4.85h-2.23l.81,6.37a2.48,2.48,0,0,0,1.87,2.11l.45,8.32,2.35,43.87v37" transform="translate(-0.04)"/><path class="cls-40" d="M296.83,343.65v-6.91c1.35,0,2.68-.1,4-.15,2.23.83,4.39,1.67,6.42,2.6l1.83.81v3.17c-4.08.17-8.17.34-12.28.48" transform="translate(-0.04)"/><path class="cls-41" d="M309.11,157.52q-6.08-1.1-12.28-2.05V143.14a6.14,6.14,0,1,1,12.28,0v14.38" transform="translate(-0.04)"/><path class="cls-39" d="M309.11,164.73q-6.08-1.11-12.28-2.06v-7.2q6.21,1,12.28,2.05v7.21" transform="translate(-0.04)"/><path class="cls-40" d="M309.11,173.61q-6.08-1.1-12.28-2v-8.9q6.21,1,12.28,2.06v8.88" transform="translate(-0.04)"/><path class="cls-37" d="M148.18,62.5a2.3,2.3,0,0,0-2.31,2.31V83.46a2.3,2.3,0,1,0,4.6,0V64.81a2.3,2.3,0,0,0-2.29-2.31" transform="translate(-0.04)"/><path class="cls-37" d="M156.23,59.87a2.31,2.31,0,0,0-2.31,2.3V80.82a2.31,2.31,0,0,0,4.62,0V62.17a2.31,2.31,0,0,0-2.31-2.3" transform="translate(-0.04)"/><path class="cls-37" d="M164.29,58.55a2.31,2.31,0,0,0-2.3,2.3V79.5a2.31,2.31,0,1,0,4.61,0V60.85a2.32,2.32,0,0,0-2.31-2.3" transform="translate(-0.04)"/><path class="cls-37" d="M172.35,57.89h0a2.3,2.3,0,0,0-2.3,2.31V78.85a2.3,2.3,0,0,0,2.3,2.3h0a2.3,2.3,0,0,0,2.3-2.3V60.2a2.3,2.3,0,0,0-2.3-2.31" transform="translate(-0.04)"/><path class="cls-37" d="M180.41,56.58a2.3,2.3,0,0,0-2.31,2.3V77.53a2.31,2.31,0,0,0,4.61,0V58.88a2.3,2.3,0,0,0-2.3-2.3" transform="translate(-0.04)"/><path class="cls-37" d="M188.47,55.92a2.3,2.3,0,0,0-2.31,2.3V76.87a2.31,2.31,0,1,0,4.62,0V58.22a2.31,2.31,0,0,0-2.31-2.3" transform="translate(-0.04)"/><path class="cls-37" d="M196.52,55.26a2.3,2.3,0,0,0-2.29,2.3V76.21a2.3,2.3,0,1,0,4.6,0V57.56a2.3,2.3,0,0,0-2.31-2.3" transform="translate(-0.04)"/><path class="cls-37" d="M204.59,54.6a2.3,2.3,0,0,0-2.31,2.31V75.56a2.31,2.31,0,0,0,4.61,0V56.91a2.3,2.3,0,0,0-2.3-2.31" transform="translate(-0.04)"/><path class="cls-37" d="M212.65,54.6a2.3,2.3,0,0,0-2.31,2.31V75.56a2.31,2.31,0,0,0,4.61,0V56.91a2.3,2.3,0,0,0-2.3-2.31" transform="translate(-0.04)"/><path class="cls-37" d="M220.71,54.6a2.3,2.3,0,0,0-2.31,2.31V75.56a2.31,2.31,0,0,0,4.61,0V56.91a2.3,2.3,0,0,0-2.3-2.31" transform="translate(-0.04)"/><path class="cls-37" d="M228.76,54.6a2.3,2.3,0,0,0-2.3,2.31V75.56a2.31,2.31,0,0,0,4.61,0V56.91a2.3,2.3,0,0,0-2.31-2.31" transform="translate(-0.04)"/><path class="cls-37" d="M236.83,54.6a2.3,2.3,0,0,0-2.31,2.31V75.56a2.3,2.3,0,1,0,4.6,0V56.91a2.3,2.3,0,0,0-2.29-2.31" transform="translate(-0.04)"/><path class="cls-37" d="M244.88,55.26a2.31,2.31,0,0,0-2.31,2.3V76.21a2.31,2.31,0,0,0,4.62,0V57.56a2.31,2.31,0,0,0-2.31-2.3" transform="translate(-0.04)"/><path class="cls-37" d="M252.94,55.92a2.3,2.3,0,0,0-2.3,2.3V76.87a2.31,2.31,0,1,0,4.61,0V58.22a2.3,2.3,0,0,0-2.31-2.3" transform="translate(-0.04)"/><path class="cls-37" d="M261,57.23a2.3,2.3,0,0,0-2.3,2.31V78.19a2.3,2.3,0,1,0,4.6,0V59.54a2.3,2.3,0,0,0-2.3-2.31" transform="translate(-0.04)"/><path class="cls-37" d="M269.06,58.55a2.31,2.31,0,0,0-2.3,2.3V79.5a2.3,2.3,0,1,0,4.6,0V60.85a2.31,2.31,0,0,0-2.3-2.3" transform="translate(-0.04)"/><path class="cls-37" d="M277.12,59.87a2.31,2.31,0,0,0-2.31,2.3V80.82a2.31,2.31,0,1,0,4.61,0V62.17a2.3,2.3,0,0,0-2.3-2.3" transform="translate(-0.04)"/><path class="cls-37" d="M285.18,62.5a2.3,2.3,0,0,0-2.3,2.31V83.46a2.3,2.3,0,0,0,4.6,0V64.81a2.3,2.3,0,0,0-2.3-2.31" transform="translate(-0.04)"/><path class="cls-42" d="M422.05,229.24l-.26,4.85-.45,8.48-.45,8.32-3.4,63.5-3.81,71.25a12.62,12.62,0,0,1-11.29,11.87,365.64,365.64,0,0,1-77.14,0A12.62,12.62,0,0,1,314,385.64l-.13-2.36-3.68-68.89-3.4-63.5-.45-8.32-.45-8.48-.26-4.85H422.05" transform="translate(-0.04)"/><path class="cls-43" d="M312.51,229.24l1,20.08,6.35,125a11.47,11.47,0,0,0,10,11,306.5,306.5,0,0,0,68,0,11.46,11.46,0,0,0,9.95-11l6.36-125,1-20.08H312.51" transform="translate(-0.04)"/><path class="cls-42" d="M424,221l-.82,6.37a2.5,2.5,0,0,1-1.86,2.1,2.18,2.18,0,0,1-.63.09H306.93a2.16,2.16,0,0,1-.62-.09,2.48,2.48,0,0,1-1.87-2.1l-.81-6.37H424" transform="translate(-0.04)"/><path class="cls-44" d="M311.84,345.86l-.15-2.8h0l.14,2.8" transform="translate(-0.04)"/><path class="cls-45" d="M311.69,343.06l-.1-1.87h0l.1,1.87h0" transform="translate(-0.04)"/><path class="cls-44" d="M311.15,332.9l-1-18.51,1,18.51" transform="translate(-0.04)"/><path class="cls-46" d="M365.37,399.54a3.82,3.82,0,0,0,.35-1.59v-10.7a302.38,302.38,0,0,0,32.09-1.88,11.46,11.46,0,0,0,9.95-11l3.05-60h6.68l-3.81,71.25a12.62,12.62,0,0,1-11.3,11.87,354.33,354.33,0,0,1-37,2" transform="translate(-0.04)"/><path class="cls-47" d="M365.72,387.25v-5.32a3.84,3.84,0,0,0-3.84-3.84H357a58.33,58.33,0,0,0-11-14.9A16.8,16.8,0,0,0,322,340v-25.6h68l-1.86,36.69-.69,13.8c-.22,4.23,3,6.34,6.25,6.34a6.61,6.61,0,0,0,6.91-6.34q1.26-25.25,2.54-50.49h7.6l-3.05,60a11.46,11.46,0,0,1-9.95,11,302.38,302.38,0,0,1-32.09,1.88" transform="translate(-0.04)"/><path class="cls-48" d="M309.11,294.76l-2.35-43.87-.45-8.32a2.48,2.48,0,0,1-1.87-2.11l-.81-6.37h2.23l-.26-4.85.26,4.85.45,8.48.45,8.32,2.35,43.87" transform="translate(-0.04)"/><path class="cls-49" d="M316.83,314.39h-6.67l-1.05-19.63-2.35-43.87-.45-8.32-.45-8.48-.26-4.85h.1a.15.15,0,0,1,.07,0,1.78,1.78,0,0,0,.54.21,2.57,2.57,0,0,0,.62.08h5.6l1,19.76,3.3,65.07" transform="translate(-0.04)"/><path class="cls-50" d="M322,314.39h-5.21l-3.3-65.07-1-19.76H322v84.83" transform="translate(-0.04)"/><path class="cls-49" d="M305.77,229.27a.15.15,0,0,0-.07,0,.15.15,0,0,1,.07,0" transform="translate(-0.04)"/><path class="cls-51" d="M316.87,346.94c-1.65-.42-3.32-.78-5-1.08l-.14-2.8-.1-1.87c.94.47,1.87.94,2.76,1.42,1.29.66,2.5,1.34,3.66,2a18,18,0,0,0-1.15,2.33m1.12-9.7-.22-.16a75.53,75.53,0,0,0-6.62-4.18l-1-18.51h6.67L318,337.24" transform="translate(-0.04)"/><path class="cls-52" d="M321.82,340.16c-1.18-1-2.44-2-3.83-2.92l-1.16-22.85H322V340l-.22.17" transform="translate(-0.04)"/><path class="cls-53" d="M278.88,367.39h-25v-31h25v31" transform="translate(-0.04)"/><path class="cls-53" d="M249.93,327.51v6.63a2.24,2.24,0,0,0,2.24,2.25h28.41a2.24,2.24,0,0,0,2.24-2.25v-6.63H249.93" transform="translate(-0.04)"/><path class="cls-54" d="M332.48,336.34a16.71,16.71,0,0,0-10.66,3.82c-1.25-1-2.59-2.06-4.05-3.08a75.57,75.57,0,0,0-7.2-4.5,79.14,79.14,0,0,0-8.46-4.1c-1.51-.61-3.05-1.25-4.65-1.78-.8-.27-1.6-.56-2.41-.81l-2.49-.74c-.82-.25-1.65-.47-2.48-.66l-2.49-.61c-1.64-.33-3.28-.66-4.88-.93s-3.2-.49-4.76-.64-3.09-.3-4.58-.35-2.95-.13-4.37-.13l-4.1.1c-1.32.06-2.6.19-3.82.29-.61,0-1.21.1-1.79.17l-1.71.25c-1.1.16-2.16.34-3.16.51s-1.91.42-2.78.63-1.67.43-2.39.64-1.4.47-2,.69c-2.36.92-3.59,1.75-3.47,2.4s1.55,1.07,4,1.26c.62.05,1.29.06,2,.11s1.54.09,2.39.11l2.73.07,3,.1c.53,0,1.07,0,1.62,0l1.7.1c1.15.06,2.35.09,3.59.16l3.81.27,4,.4c1.38.13,2.78.36,4.22.52s2.88.47,4.36.69,3,.58,4.49.88l2.27.53c.77.17,1.54.35,2.3.57l2.28.61c.77.21,1.5.45,2.25.66,1.49.42,2.91.95,4.34,1.42,2.83,1,5.54,2,8.06,3.19s4.9,2.26,7.08,3.42c1.29.66,2.5,1.34,3.66,2a16.79,16.79,0,1,0,14.46-8.27" transform="translate(-0.04)"/><path class="cls-55" d="M361.46,389.93H238.61c6.46-25.82,31.5-45.09,61.43-45.09s55,19.27,61.42,45.09" transform="translate(-0.04)"/><path class="cls-56" d="M361.88,378.09H238.19a3.84,3.84,0,0,0-3.83,3.84v16a3.85,3.85,0,0,0,3.83,3.84H361.88a3.85,3.85,0,0,0,3.84-3.84v-16a3.84,3.84,0,0,0-3.84-3.84" transform="translate(-0.04)"/><path class="cls-57" d="M353.49,398a3,3,0,0,1-3-3V384.83a3,3,0,0,1,5.92,0V395a3,3,0,0,1-3,3" transform="translate(-0.04)"/><path class="cls-58" d="M342.41,374.72a3.37,3.37,0,0,1-2.77-1.42l.09.12-.17-.2c-.46-.55-.91-1.09-1.38-1.62a59.07,59.07,0,0,0-4.38-4.43,42.66,42.66,0,0,0-16.19-9.52c-3.71-1.1-2.58-6.5.74-6.5a3.62,3.62,0,0,1,1,.15c10.27,3.09,19.57,10.11,26,18.69,1.78,2.39-.51,4.73-2.91,4.73m-2.57-1.16a.51.51,0,0,1-.11-.14l.11.14" transform="translate(-0.04)"/><path class="cls-59" d="M410.5,314.39h-7.29l.81-16c3.78,9.75,6.45,15.94,6.48,16" transform="translate(-0.04)"/><path class="cls-59" d="M390.06,314.39H334.22c10.69-30.25,18-68.14,20.95-84.83h27.27a374.31,374.31,0,0,0,10.05,36.51q-1.23,24.17-2.43,48.32" transform="translate(-0.04)"/><path class="cls-60" d="M393.76,371.22c-3.28,0-6.47-2.11-6.25-6.34l.69-13.8,1.86-36.69h13.15q-1.27,25.25-2.54,50.49a6.61,6.61,0,0,1-6.91,6.34" transform="translate(-0.04)"/><path class="cls-61" d="M404,298.37c-3.33-8.59-7.52-19.94-11.53-32.3q.3-6.06.61-12.11a6.61,6.61,0,0,1,6.9-6.35c3.29,0,6.47,2.11,6.26,6.35-.23,4.59-.46,9.2-.7,13.79q-.76,15.31-1.54,30.62" transform="translate(-0.04)"/><path class="cls-60" d="M403.21,314.39H390.06q1.2-24.15,2.43-48.32c4,12.36,8.2,23.71,11.53,32.3l-.81,16" transform="translate(-0.04)"/><path class="cls-62" d="M383,331.76a3.94,3.94,0,0,0-3.94,3.94v11.24a3.94,3.94,0,0,0,3.94,3.94h14.22V331.76H383" transform="translate(-0.04)"/><path class="cls-56" d="M449.62,283.09h-5.28A7.31,7.31,0,0,0,437,290.4V392.24a7.31,7.31,0,0,0,7.31,7.31h5.28a7.3,7.3,0,0,0,7.3-7.31V290.4a7.3,7.3,0,0,0-7.3-7.31" transform="translate(-0.04)"/><path class="cls-55" d="M429.72,290.06h-5.28a7.31,7.31,0,0,0-7.31,7.31v87.9a7.31,7.31,0,0,0,7.31,7.31h5.28a7.31,7.31,0,0,0,7.31-7.31v-87.9a7.31,7.31,0,0,0-7.31-7.31" transform="translate(-0.04)"/><path class="cls-54" d="M409.83,296.78h-5.28a7.3,7.3,0,0,0-7.31,7.3v74.47a7.3,7.3,0,0,0,7.31,7.31h5.28a7.29,7.29,0,0,0,7.3-7.31V304.08a7.3,7.3,0,0,0-7.3-7.3" transform="translate(-0.04)"/><path class="cls-63" d="M464.88,355.65h-8V327h8v28.66" transform="translate(-0.04)"/><path class="cls-63" d="M397.24,355.65h-8V327h8v28.66" transform="translate(-0.04)"/><path class="cls-62" d="M662.63,350.88a3.93,3.93,0,0,0,3.93-3.94V335.7a3.93,3.93,0,0,0-3.93-3.94H648.41v19.12h14.22" transform="translate(-0.04)"/><path class="cls-56" d="M596,399.55h5.28a7.31,7.31,0,0,0,7.31-7.31V290.4a7.31,7.31,0,0,0-7.31-7.31H596a7.31,7.31,0,0,0-7.31,7.31V392.24a7.31,7.31,0,0,0,7.31,7.31" transform="translate(-0.04)"/><path class="cls-55" d="M615.93,392.58h5.28a7.3,7.3,0,0,0,7.3-7.31v-87.9a7.3,7.3,0,0,0-7.3-7.31h-5.28a7.31,7.31,0,0,0-7.31,7.31v87.9a7.31,7.31,0,0,0,7.31,7.31" transform="translate(-0.04)"/><path class="cls-54" d="M635.82,385.86h5.28a7.3,7.3,0,0,0,7.31-7.31V304.08a7.3,7.3,0,0,0-7.31-7.3h-5.28a7.31,7.31,0,0,0-7.31,7.3v74.47a7.31,7.31,0,0,0,7.31,7.31" transform="translate(-0.04)"/><path class="cls-63" d="M580.77,327h8v28.66h-8V327" transform="translate(-0.04)"/><path class="cls-63" d="M648.41,327h8v28.66h-8V327" transform="translate(-0.04)"/><path class="cls-62" d="M580.77,331.76v19.12H464.88V331.76H580.77" transform="translate(-0.04)"/><path class="cls-55" d="M643.77,313.05a2,2,0,0,0-2,2v52.54a2,2,0,1,0,4,0V315.05a2,2,0,0,0-2-2" transform="translate(-0.04)"/><path class="cls-56" d="M624,313.05a2,2,0,0,0-2,2v52.54a2,2,0,1,0,4,0V315.05a2,2,0,0,0-2-2" transform="translate(-0.04)"/><path class="cls-64" d="M603.81,313.05a2,2,0,0,0-2,2v52.54a2,2,0,1,0,4,0V315.05a2,2,0,0,0-2-2" transform="translate(-0.04)"/><path class="cls-64" d="M452.45,313.05a2,2,0,0,0-2,2v52.54a2,2,0,1,0,4,0V315.05a2,2,0,0,0-2-2" transform="translate(-0.04)"/><path class="cls-56" d="M432.72,313.05a2,2,0,0,0-2,2v52.54a2,2,0,1,0,4,0V315.05a2,2,0,0,0-2-2" transform="translate(-0.04)"/><path class="cls-55" d="M412.49,313.05a2,2,0,0,0-2,2v52.54a2,2,0,1,0,4,0V315.05a2,2,0,0,0-2-2" transform="translate(-0.04)"/><path class="cls-27" d="M161.59,392.45a12.24,12.24,0,0,1-3,3.57,16.21,16.21,0,0,1-7.07,3.46,178.5,178.5,0,0,1-76.35,0A16.3,16.3,0,0,1,68.14,396a12.21,12.21,0,0,1-2.94-3.57c-3.09-5.83.65-12.53,4.89-17.82a110.68,110.68,0,0,1,19.84-19.15,2.37,2.37,0,1,0,3.78-2.75c1.39-1,2.81-1.91,4.25-2.82a1.21,1.21,0,0,0-.06.38A1.31,1.31,0,1,0,99.41,349c2-1.22,4-2.4,6.09-3.51a2.48,2.48,0,0,0,4.81-.83,2.41,2.41,0,0,0-.39-1.33,11.2,11.2,0,0,1,8.41.61c1,.52,2.06,1.06,3.08,1.61a1.88,1.88,0,0,0,3.27,1.84c1.41.83,2.8,1.67,4.17,2.55a1.77,1.77,0,0,0-.17.77,1.88,1.88,0,0,0,3.26,1.26,112.24,112.24,0,0,1,24.76,22.66c4.23,5.29,8,12,4.89,17.82" transform="translate(-0.04)"/><path class="cls-65" d="M156,380.83c-2.7-6.43-7.55-11.08-12.77-15.55a148.43,148.43,0,0,0-18.43-13.47c-3.61-2.23-6.92,3.45-3.32,5.68a137.81,137.81,0,0,1,16.2,11.68c4.45,3.75,9.66,7.89,12,13.41,1.62,3.86,8,2.16,6.35-1.75" transform="translate(-0.04)"/><path class="cls-27" d="M129.36,345.77a1.88,1.88,0,1,1-1.87-1.88,1.88,1.88,0,0,1,1.87,1.88" transform="translate(-0.04)"/><path class="cls-27" d="M103.71,347.14a1.85,1.85,0,1,1-1.84-1.85,1.84,1.84,0,0,1,1.84,1.85" transform="translate(-0.04)"/><path class="cls-27" d="M97,349a1.31,1.31,0,1,1-1.3-1.31A1.3,1.3,0,0,1,97,349" transform="translate(-0.04)"/><path class="cls-27" d="M88.64,354.84a.91.91,0,1,1-.91-.91.9.9,0,0,1,.91.91" transform="translate(-0.04)"/><path class="cls-27" d="M137.72,352.61a.92.92,0,1,1-.92-.93.92.92,0,0,1,.92.93" transform="translate(-0.04)"/><path class="cls-27" d="M141.92,354.41A1.42,1.42,0,1,1,140.5,353a1.42,1.42,0,0,1,1.42,1.42" transform="translate(-0.04)"/><path class="cls-27" d="M109.83,344.68A1.88,1.88,0,1,1,108,342.8a1.88,1.88,0,0,1,1.88,1.88" transform="translate(-0.04)"/><path class="cls-27" d="M124.41,346.42a1.37,1.37,0,1,1-1.37-1.36,1.37,1.37,0,0,1,1.37,1.36" transform="translate(-0.04)"/><path class="cls-5" d="M653.87,397.1c0,1.47,16.54,2.67,36.94,2.67s37-1.2,37-2.67-16.54-2.66-37-2.66-36.94,1.19-36.94,2.66" transform="translate(-0.04)"/><path class="cls-66" d="M708.66,382.31a11.67,11.67,0,0,1-.13,6.12c-.5,2-1.3,3.91-1.94,5.87a3.11,3.11,0,0,0-.13,2.18c.48,1.07,1.89,1.27,3.06,1.32a10.63,10.63,0,0,0,2.93-.17,3.39,3.39,0,0,0,2.28-1.73c.53-1.16.11-2.51-.25-3.74a40,40,0,0,1-1.65-10.81,5.33,5.33,0,0,1-4.17,1" transform="translate(-0.04)"/><path class="cls-66" d="M678.55,382.66a12.67,12.67,0,0,0,1.33,11.49,6.59,6.59,0,0,1,.89,1.65,1.62,1.62,0,0,1-.39,1.72,2.39,2.39,0,0,1-1.4.39l-2.92.17a4.75,4.75,0,0,1-2.62-.35c-1.26-.71-1.62-2.35-1.72-3.79a31.62,31.62,0,0,1,1.61-12.73c1.38.18,3.84,1.27,5.22,1.45" transform="translate(-0.04)"/><path class="cls-23" d="M719.17,347.65c.42,7-.26,19-6,35.73h-4.81c-5.15-27.73-.92-42.14-.76-42.52l0,0a95.64,95.64,0,0,1,1.58-24.49,52.7,52.7,0,0,1-9.57,20.86,32.4,32.4,0,0,0-5.79,11.86c-4,15-14.53,33.58-14.53,33.58H673c-.95-38,13.92-44,13.92-44l-.57-11.18a70.09,70.09,0,0,1,2.73-23.31l.47-1.6a47.29,47.29,0,0,0,1.09-13.84c-.51-5.61,1.22-8.37,1.22-8.37l25-1.54c12,21.09,7.84,42.65,4.24,53.8a41,41,0,0,0-1.91,15" transform="translate(-0.04)"/><path class="cls-67" d="M708.11,213.65a19.93,19.93,0,0,0-2.3,5.47,24.32,24.32,0,0,1-1.33,4.65,4.52,4.52,0,0,1-3.69,2.76,18.91,18.91,0,0,0,1.57-5.71,11.28,11.28,0,0,1,2.32-5.51,5.61,5.61,0,0,1,3.43-1.66" transform="translate(-0.04)"/><path class="cls-20" d="M746.24,260.28a28.57,28.57,0,0,1-25.78-1c-2.4,1.58-4.54,3.56-5.38,6.32-1.75,5.72,2.35,11.73,1.7,17.67h-24.9c-.91-4-3.75-7.3-6.66-10.21s-6.17-5.45-8.9-8.52-4.94-10.42-5.11-14.52c-2.08.13-4.18.25-6.29.33a68.42,68.42,0,0,1-11.37-.37c-5.81-.76-11.61-2.7-16.1-6.45-2.55-2.13-2.12-6.36-1.8-9.66a37,37,0,0,1,2.42-9.61,43.37,43.37,0,0,1,5.34-10.54,22.23,22.23,0,0,1,9-7.52c1.87-.79,4.25.53,5.7,2a6.89,6.89,0,0,1,1.92,5.59,3.1,3.1,0,0,1-.9,2,3.58,3.58,0,0,1-2,.7,16.27,16.27,0,0,1-5.65-.27,13.18,13.18,0,0,0-1.91,9.25,13.48,13.48,0,0,0,4.9,8.22,10.13,10.13,0,0,1,11.29-3.17,12.82,12.82,0,0,1,8.38-3.06,12.22,12.22,0,0,1,8.08,3.23c2.84-1.67,7.8-2.39,11.07-2.05l2.45-4.86,1-1.93,7.14-1.39c-.13,2.47-.19,7.86,1.13,9.94,0,0,5.36.27,7.76,4.6,0,0,9.61-1.8,12.37,7,0,0,9.13.24,11.16,6.73,1.27-.86,2.7-.95,4.12-1.52a8,8,0,0,0,4.92-7.48,2.89,2.89,0,0,1-3-1.55,6.34,6.34,0,0,1-.83-3.54,3.47,3.47,0,0,1,.33-1.72,3.86,3.86,0,0,1,1.76-1.42l.06,0a5.15,5.15,0,0,1,7.43,4.26,45.42,45.42,0,0,1-4.86,24.58" transform="translate(-0.04)"/><path class="cls-68" d="M720.46,259.28c-2.4,1.58-4.54,3.56-5.38,6.32-1.75,5.72,2.35,11.73,1.7,17.67h-24.9c-.91-4-3.75-7.3-6.66-10.21s-6.17-5.45-8.9-8.52-4.94-9.69-5.11-13.8c-2.08.13-4.18.25-6.29.33,0,0-2.23-10.43.87-20.55a12.82,12.82,0,0,1,8.38-3.06,12.22,12.22,0,0,1,8.08,3.23c2.53-1.48,6.73-2.22,9.93-2.12.39,0,.78,0,1.14.07,0,0,1.17,17,11.69,1.76a10.79,10.79,0,0,1,1.55.25h0a9.36,9.36,0,0,1,6.21,4.34s9.61-1.8,12.37,7c0,0,2.22,8.6-4.68,17.31" transform="translate(-0.04)"/><path class="cls-24" d="M665.89,230.15a9.78,9.78,0,0,0-11.23,3.18,14.48,14.48,0,0,1-4-5.36c-.19-.45-.84-.06-.65.38a15,15,0,0,0,4.19,5.6,11,11,0,0,0-1.32,2.81c-.15.47.58.67.73.2,1.68-5.39,6.74-7.85,12.05-6.07.46.15.66-.58.2-.74" transform="translate(-0.04)"/><path class="cls-24" d="M742.5,245.3c-1.45,1.89-4.19,2.06-6.22,3.15a8.86,8.86,0,0,0-4.43-5.11,15.38,15.38,0,0,0-6.71-1.74c-.49,0-.49.74,0,.75a15.12,15.12,0,0,1,5.69,1.32c4,1.84,5.66,5.48,5.12,9.81-.05.48.71.48.77,0a12.12,12.12,0,0,0-.22-4.28c2.2-1.27,5-1.38,6.65-3.52.3-.39-.36-.76-.65-.38" transform="translate(-0.04)"/><path class="cls-69" d="M676.83,244.76c2.16,4.37,2,10,6.06,13.29,3.88,3.11,9.18,2.85,13.85,2.56.48,0,.48-.78,0-.75-5.35.33-12,.56-15.3-4.53-2.13-3.24-2.25-7.48-4-11-.21-.44-.87-.06-.65.38" transform="translate(-0.04)"/><path class="cls-69" d="M712.44,262A10.86,10.86,0,0,0,724,250.26c0-.48-.79-.49-.76,0a10.11,10.11,0,0,1-10.75,11c-.49,0-.49.74,0,.76" transform="translate(-0.04)"/><path class="cls-68" d="M715,271.84s2.29,5.91,4.83,12.94c0,0-15.23,5.89-29.2.82,0,0,.53-4.42-3.66-10.75l28-3" transform="translate(-0.04)"/><path class="cls-24" d="M703.18,222.43s-1.78,8.19-9.86,6.21l2.45-4.86,7.41-1.35" transform="translate(-0.04)"/><path class="cls-67" d="M694.61,208.38a7.68,7.68,0,0,0,.06,6.76c.58-1.45,1.14-2.92,1.72-4.36a2.29,2.29,0,0,0,.25-1.39,1.52,1.52,0,0,0-.87-.95c-.41-.18-.72,0-1.16-.06" transform="translate(-0.04)"/><path class="cls-11" d="M704.06,220.22c0,.13-.09.27-.14.4a11,11,0,0,1-4,5.78c-1.83,1.23-5.25,1.23-7.28.37s-2.68-2.4-2.63-4.6a8,8,0,0,1,1.54-4.13c.83-1.25,1.8-2.38,2.54-3.68a7.78,7.78,0,0,0,1.23-4.59l.19-.07A10.63,10.63,0,0,1,705.63,211a28.88,28.88,0,0,1-1.57,9.18" transform="translate(-0.04)"/><path class="cls-67" d="M704.7,217.62a4.72,4.72,0,0,1-1.25-3.26,4.79,4.79,0,0,1,1.3-3.25,24.51,24.51,0,0,1-5,.48,8.47,8.47,0,0,1-4.6-1.56,5.13,5.13,0,0,1-2.11-4.25,21,21,0,0,1,5.1-2.08,7.45,7.45,0,0,1,5.46.92,4.55,4.55,0,0,1,1.94,4.94,8.31,8.31,0,0,1,2.2,1,2.35,2.35,0,0,1,1.07,1.83,3.61,3.61,0,0,1-1.18,2.2c-1,1.07-2,2-2.95,3.07" transform="translate(-0.04)"/><path class="cls-11" d="M703.87,217.73a4.26,4.26,0,0,1,.61-.85,1.42,1.42,0,0,1,.94-.43,1.39,1.39,0,0,1,1.28,1.21,3.39,3.39,0,0,1-.33,1.86,4.78,4.78,0,0,1-.75,1.27,2.06,2.06,0,0,1-1.27.69,1.32,1.32,0,0,1-1.27-.6,9.13,9.13,0,0,0,.79-3.15" transform="translate(-0.04)"/><path class="cls-12" d="M695.59,218.29c0,.05-.14.08-.34,0a1.22,1.22,0,0,1-.67-.51v0a1.29,1.29,0,0,1-.19-.55.9.9,0,0,1,.1-.53l.1-.07,0,0c0,.07,0,.22.11.4a1.78,1.78,0,0,0,.18.44l0,0a1.68,1.68,0,0,0,.47.51c.12.11.21.18.19.24" transform="translate(-0.04)"/><path class="cls-13" d="M698.41,220.46a12.26,12.26,0,0,1-5.24-1,.46.46,0,0,0-.69.35c.09,4.76,4.9,4,6.23,1.37.17-.34.09-.71-.3-.7" transform="translate(-0.04)"/><path class="cls-70" d="M673.3,382.66c-.34-11.24,1.81-23.59,7.09-33.57a36.55,36.55,0,0,1,3.82-5.88c1-1.31,2.81-2.46,3.65-3.85.66-1.07.61-3.92.68-5.15.15-3,0-6-.12-9a68.51,68.51,0,0,1,1.6-17.65c1.23-5.46,2.51-10.82,2.22-16.46,0-.34-.56-.34-.54,0,.33,6.47-1.47,12.57-2.75,18.84a63,63,0,0,0-1.07,15.27c.11,3,.27,6,.11,9-.2,4-1.29,5.2-3.61,7.94a39.46,39.46,0,0,0-5.81,9.46,72.44,72.44,0,0,0-5.81,31.05.27.27,0,0,0,.54,0" transform="translate(-0.04)"/><path class="cls-66" d="M706.89,324.7a77.08,77.08,0,0,0,4.4-17.17c.06-.34-.47-.48-.52-.14a77.41,77.41,0,0,1-4.4,17.16c-.14.32.38.47.52.15" transform="translate(-0.04)"/><path class="cls-66" d="M709.34,308.41A9.22,9.22,0,0,0,715.65,297c-.08-.34-.61-.19-.52.14a8.64,8.64,0,0,1-5.94,10.77.28.28,0,0,0,.15.53" transform="translate(-0.04)"/><path class="cls-66" d="M691.22,305.7A14.05,14.05,0,0,0,698.28,292c0-.35-.57-.35-.54,0A13.55,13.55,0,0,1,691,305.23c-.31.17,0,.64.27.47" transform="translate(-0.04)"/><path class="cls-71" d="M826.5,270.59c-4.77,29.55-5.29,61.62-3.89,93.48,1,23,3,45.95,5.15,67.76a106.4,106.4,0,0,1-18.1,1.52,108.11,108.11,0,0,1-12.36-.7c-2.06-.23-4.08-.53-6.07-.87.25-21.87.35-44.28.25-66.93-.28-59.93-2-121.47-6.38-178.63a182.77,182.77,0,0,0,44-1.9c5.29,13.59,5.87,28.6,4.45,43.11s-4.74,28.76-7.07,43.16" transform="translate(-0.04)"/><path class="cls-37" d="M842.82,227.43c-1.42,14.52-4.75,28.76-7.08,43.16-5,30.68-6.53,64.05-6,97.11.39,22.71,1.78,45.26,3.8,66.7a106.11,106.11,0,0,1-20.76,2,110.7,110.7,0,0,1-12.38-.69c.22-22.38.06-45.36-.41-68.6-1.22-60.64-4.56-123-9-180.9a211.51,211.51,0,0,0,47.37-1.9c5.27,13.59,5.85,28.6,4.44,43.11" transform="translate(-0.04)"/><path class="cls-72" d="M871.57,380.16c2.24,13.38,6,30.11,9,43.36a77,77,0,0,1,2.14,19.59h16.05a43,43,0,0,1-.85-6.2c-6.63-53.93,7.31-105.67,7.31-105.67-7.41,0-16.61-7.18-23.58-9.67-8.93,18-13.35,38.79-10,58.59" transform="translate(-0.04)"/><path class="cls-11" d="M863.5,380.16c2.25,13.38,6,30.11,9,43.36a77,77,0,0,1,2.15,19.59h16a43,43,0,0,1-.85-6.2c-6.64-53.93,7.31-105.67,7.31-105.67-7.41,0-16.61-7.18-23.59-9.67-8.93,18-13.34,38.79-10,58.59" transform="translate(-0.04)"/><path class="cls-21" d="M905.59,337.91s-21,10.29-39.16,0c7.79-19.05,4.15-39.32-1.15-59.2S849.77,239,850,218.44c.16-13.39,6.45-26.55,7.42-39.91.12-1.47.2-3,.25-4.43h35.7s1.93,2.73,4,11.57c4.22,17.63,16.53,59.5,8.19,152.24" transform="translate(-0.04)"/><path class="cls-68" d="M751.23,78.24l-.06,1.28-.11,2.22L751,83.92l-.8,16.67-.57,12-.32,6.7a3.41,3.41,0,0,1-1.15,2.43,2.79,2.79,0,0,1-1.51.68,76.69,76.69,0,0,1-18.17,0,3.18,3.18,0,0,1-2.66-3.11l0-.62-.87-18.07-.8-16.67L724,81.74l-.11-2.22-.06-1.28h27.44" transform="translate(-0.04)"/><path class="cls-73" d="M749.58,112.58l-.32,6.7a3.41,3.41,0,0,1-1.15,2.43,17.31,17.31,0,0,0-1.59-1c-2.47-1.32-5.16-2.19-7.63-3.51a12.24,12.24,0,0,1-5.9-5.74c5.44.93,11.12.46,16.59,1.09" transform="translate(-0.04)"/><path class="cls-74" d="M751.7,75.05l-.2,2.71a.65.65,0,0,1-.44.55l-.14,0H724.11l-.14,0a.66.66,0,0,1-.45-.55l-.19-2.71H751.7" transform="translate(-0.04)"/><path class="cls-75" d="M891.5,32.05s2.82,3.32-1.07,8.19l-4.13-6,5.2-2.2" transform="translate(-0.04)"/><path class="cls-20" d="M893.1,63.71h-1.85c-.24,1.26-.51,2.51-.83,3.75-.22.85-.47,1.7-.73,2.54-.11.36-.22.72-.35,1.08-.19.58-.4,1.18-.62,1.77s-.47,1.19-.72,1.78c-.65,1.53-1.49,3.14-3,3.8a4.72,4.72,0,0,1-3.77-.16A14.48,14.48,0,0,1,878,76.08a38.73,38.73,0,0,0-1.9,4.32h0a29.94,29.94,0,0,0-1.91,11.81,24.92,24.92,0,0,1-17.05-11.58c1.75-12.36,9.18-23.24,14.11-34.72,1.26-2.89,2.44-6,4.81-8.06,3.45-3,8.6-2.65,13.19-2.64,1.8,2.63,2.35,5.92,2.66,9.09.26,2.58-.35,7.78-.35,10.39l2.83,7.4a1.33,1.33,0,0,1-1.3,1.62" transform="translate(-0.04)"/><path class="cls-76" d="M899.44,131.4c-.81,4.71-2.29,9.29-3.21,14-2.25,11.44-.77,25.44.34,37-13-4-25.55-5-39.15-3.89-1.14-11.57-6.26-24.73-9.16-36s-5.3-22.88-4.33-34.47c.87-10.33,4.71-20.77,12-28a30.64,30.64,0,0,1,2.83-2.5A40.13,40.13,0,0,1,874.2,92.21a26.65,26.65,0,0,0,5,6c2.44,2.23,5.17,4.2,7.75,6.17,4.65,3.54,9.34,7.5,11.53,12.92,1.79,4.43,1.71,9.41.91,14.12" transform="translate(-0.04)"/><path class="cls-20" d="M918.58,138.91c-9.35,10-22.7,29.23-33.25,36.39-4.56,3.1-10.49,5.33-15.52,3-3.49-1.6-5.74-5.07-7.42-8.54-3.68-7.6-5.45-15.82-6.23-24.24a53.35,53.35,0,0,1,26.55-6.49q.82,6.84,2.29,13.58c9.16-5.59,23.76-17.39,29.41-26.48,2.26,4.18,2.16,8.43,4.17,12.74" transform="translate(-0.04)"/><path class="cls-20" d="M828.3,62.28,807.2,71,802.76,56.3c-8.1,8.55-14.42,2-17.08-8.94l-2.45.45a1.29,1.29,0,0,1-1.62-1.35l1.32-10.16h0c-.91-7.82-1.46-17.18-1.46-17.18,33.12-23.52,45,19.26,45,19.26-5.92,11.67,1.85,23.89,1.85,23.89" transform="translate(-0.04)"/><path class="cls-77" d="M814.7,37.2a22.56,22.56,0,0,0,1.69-5.4,8.05,8.05,0,0,0-1-5.45,4.91,4.91,0,0,0-4.84-2.26,5.64,5.64,0,0,0-3,1.93c-1,1.08-1.66,2.65-1,3.94a2.89,2.89,0,0,1-3.44-1,11,11,0,0,1-1.9-3.75,8.67,8.67,0,0,0-2.1-3.62c-2.13-1.89-5.39-1.4-8.16-.77s-6,1.16-8.2-.66A4.56,4.56,0,0,1,777.84,22a7.37,7.37,0,0,1-4.34-3.17,21.36,21.36,0,0,1-2.33-5c6.46-3.67,13-7.29,19.59-10.72,2.81-1.46,5.73-2.9,8.88-3.08s6.62,1.23,7.91,4.11c4.4-.27,9.4-.26,13,2.25,3.12,2.16,4.87,5.81,6,9.42a47,47,0,0,1-.28,29.44c-1.47-2-3.43-2.52-5.8-3.33a11.39,11.39,0,0,1-5.83-4.7" transform="translate(-0.04)"/><path class="cls-75" d="M789.31,35.38c.08,1-.4,1.9-1.08,1.95s-1.29-.72-1.38-1.74.38-1.88,1.06-2,1.32.72,1.4,1.74" transform="translate(-0.04)"/><path class="cls-75" d="M888.64,53.87c-.09,1-.72,1.79-1.4,1.72s-1.14-.93-1.06-2,.72-1.8,1.4-1.73,1.15.93,1.06,2" transform="translate(-0.04)"/><path class="cls-78" d="M790.94,29.27a13.6,13.6,0,0,0-6.14-.55c-1.38.19-.94,2.31.44,2.13a11.07,11.07,0,0,1,5,.47,1.09,1.09,0,0,0,.72-2.05" transform="translate(-0.04)"/><path class="cls-22" d="M844.92,209c-20.71,3.35-40.42,2.84-60.71-2.48.27-19.29-2.89-51.52-.51-70.65s6.95-38.17,15.43-55.49c.59-1.21,1.21-2.43,1.88-3.65,4.8-8.72,11.51-17.05,20.88-19.63a22,22,0,0,1,4.87,1.44,28.31,28.31,0,0,1,13.11,12c3.87,6.7,5.3,14.54,5.48,22.27s-.86,15.42-1.64,23.1c-2.71,26.64-2.06,66.55,1.21,93.12" transform="translate(-0.04)"/><path class="cls-20" d="M823.69,128.53c-3.5,6.76-7.24,13.43-10.47,20.24-1.35,2.85-2.66,5.8-4.91,8s-6.3,2.74-9.3,1.78a52.45,52.45,0,0,1-26-18.64c-3.18-4.31-5.84-9.24-9.23-13.32a24.45,24.45,0,0,0-7.11-6.09c-3.91-2.1-8.4-2.75-12.7-3.82l-.94-.25c-9.57-2.21-10.46-5.23-10.35-6.51a1.74,1.74,0,0,1,.15-.62c-2.69-1.29-1.56-5-1.56-5-1.21-1.33-1.81-3.48-.81-5a9.13,9.13,0,0,1-1-4.85,1.67,1.67,0,0,1,.34-1c.56-.58,1.53-.16,2.22.26,3.43,2.06,14.46,3.37,18.45,3.46a1.09,1.09,0,0,0,0-.44V91.21c3.56.39,5.3,2.23,8,4.47,3.68,3.07,6.26,7.22,8.68,11.35,1.33,2.26,2.65,4.55,4.11,6.73a33.86,33.86,0,0,0,4.06,5c4.11,4.15,9.36,6.72,14.93,8.63,1-3.78,1-7.57,2-11.36,11,1,22.88,5.47,31.5,12.47" transform="translate(-0.04)"/><path class="cls-24" d="M878,76.08a38.73,38.73,0,0,0-1.9,4.32l-1.91-8.12,3.81,3.8" transform="translate(-0.04)"/><path class="cls-79" d="M792.73,116.2a113.33,113.33,0,0,1,8.11-28.45c.28-.65-.67-1.22-1-.56a114.22,114.22,0,0,0-8.22,28.71c-.11.71,1,1,1.07.3" transform="translate(-0.04)"/><path class="cls-79" d="M824.21,128.68a259.33,259.33,0,0,0,9.07-26.77.56.56,0,0,0-1.07-.3,261,261,0,0,1-9.06,26.78c-.26.66.8,1,1.06.29" transform="translate(-0.04)"/><path class="cls-24" d="M790.26,132c.62-5,1.3-9.94,2.24-14.87.14-.69-.94-1-1.07-.29-.95,5-1.64,10.09-2.27,15.16-.09.71,1,.71,1.1,0" transform="translate(-0.04)"/><path class="cls-80" d="M886,155.24q-2.36-15.56-4.73-31.12c-.22-1.51-.45-3-.68-4.51-.11-.71-1.18-.41-1.07.29q2.35,15.57,4.73,31.13c.23,1.5.45,3,.68,4.51.1.71,1.18.41,1.07-.3" transform="translate(-0.04)"/><path class="cls-80" d="M857.68,152.88c-1.57-9.63-2.91-19.65-2.42-29.42,0-.72-1.07-.72-1.1,0-.51,9.87.86,20,2.45,29.72.12.7,1.19.4,1.07-.3" transform="translate(-0.04)"/><path class="cls-20" d="M879.25,98.19a14.12,14.12,0,0,1-6.47-2.2C866.1,92,860.93,86,856,80.06a30.64,30.64,0,0,1,2.83-2.5A40.13,40.13,0,0,1,874.2,92.21a26.65,26.65,0,0,0,5,6" transform="translate(-0.04)"/><path class="cls-20" d="M826.76,58.51A29,29,0,0,1,801,76.7c4.8-8.72,11.51-17.05,20.88-19.63a22,22,0,0,1,4.87,1.44" transform="translate(-0.04)"/><path class="cls-24" d="M802.76,56.3l5.37-5.22-2.68,14.09Z" transform="translate(-0.04)"/><path class="cls-77" d="M802.08,27.48c1,2.2,2.4,4.16,3.44,6.32s1.65,4.73.78,7-3.36,3.9-5.84,4.5a35.94,35.94,0,0,1-7.63.56,14.44,14.44,0,0,0-7.37,1.74c0,2.78-.24,5.85.36,8.56a14,14,0,0,0,3.82,7.27,8.49,8.49,0,0,0,7.65,2.28,9.28,9.28,0,0,0,4.7-3.14,26.58,26.58,0,0,0,3.07-4.86,52.42,52.42,0,0,0,4.16-9.2,18.88,18.88,0,0,0,.56-10,50.82,50.82,0,0,0-2.89-7.08c-1-2.35-1.72-4.95-1.15-7.44-1.25,1.28-2.41,2.23-3.66,3.51" transform="translate(-0.04)"/><path class="cls-20" d="M790.1,51.29a2.5,2.5,0,0,1-2.42,1.78c-1.07,0-1.26,1.61-.19,1.65a4.15,4.15,0,0,0,4.16-2.8c.33-1-1.21-1.64-1.55-.63" transform="translate(-0.04)"/><path class="cls-21" d="M891.21,31.64a20.27,20.27,0,0,0-5.65-4.19c-6-3.17-12.88-4.89-19.59-4s-13.15,4.72-16.51,10.61c-3.72,6.55-3.27,14.69-1.5,22,.64,2.65,1.43,5.35,1.94,8.06-2.71,1-5.32,2.29-6.82,4.88a.55.55,0,0,0,.95.57,8.65,8.65,0,0,1,3.67-3.3,18.92,18.92,0,0,0-2.1,2.47,13.91,13.91,0,0,0-2.73,8.31,11.41,11.41,0,0,0,3.41,7.63,10.87,10.87,0,0,0,4.56,2.78,11.6,11.6,0,0,0,11.29-2.89,12,12,0,0,0,1.13-1.33A9.85,9.85,0,0,0,864.49,81a12.21,12.21,0,0,0-1.39-11.07,10.69,10.69,0,0,0,7.56-5,8.49,8.49,0,0,0,1.06-2.36v0a5.91,5.91,0,0,1-3.85-2.59,7.21,7.21,0,0,1-.5-4.13,6.42,6.42,0,0,1,1.45-3.42,3.65,3.65,0,0,1,3.38-1.22,2.57,2.57,0,0,1,2,2.75c3.77-.65,7.15-2.62,8.06-6.33.68-2.72.19-5.69,1.32-8.25A7.06,7.06,0,0,1,887,35.83a7.47,7.47,0,0,0-2.21,3c-1.09,2.6,0,5.82-1.62,8.16-.41.6.56,1.16,1,.56,1.08-1.6,1-3.39,1.07-5.25.14-3.06,1.65-5.87,4.76-6.72a.52.52,0,0,0,.38-.63,2,2,0,0,0,.91-3.29" transform="translate(-0.04)"/><path class="cls-21" d="M884.79,51.14a.76.76,0,0,1-.65-.47.78.78,0,0,1,.13-.85,7.87,7.87,0,0,1,5-2.46h.08a.79.79,0,0,1,.77.77.64.64,0,0,1-.6.7,6.45,6.45,0,0,0-4.22,2.08.61.61,0,0,1-.48.23" transform="translate(-0.04)"/><path class="cls-24" d="M889.69,70c-.11.36-.22.72-.35,1.08a9.55,9.55,0,0,1-2.8-2.13c-.48-.52.3-1.31.79-.78A8.39,8.39,0,0,0,889.69,70" transform="translate(-0.04)"/><path class="cls-20" d="M935.78,129.37s.6,1.09-.86,3.19a.87.87,0,0,1,.18.58c0,.66-.71,1.82-4.21,3.32h0a45.56,45.56,0,0,1-6.41,2.56c-3,.73-6.05,1.18-8.72,2.64a16.51,16.51,0,0,0-4.9,4.17A56.79,56.79,0,0,0,905.7,137c1-1.49,1.91-3.07,2.83-4.62a28.18,28.18,0,0,1,6-7.8c1.84-1.54,2.7-2.8,5.14-3.06l.33,3.8a.76.76,0,0,0,0,.3c2.75-.06,12.93-2.07,15.28-3.49.47-.29,1.14-.58,1.52-.17a1,1,0,0,1,.23.69,6.28,6.28,0,0,1-.66,3.32,2.87,2.87,0,0,1-.55,3.4" transform="translate(-0.04)"/><path class="cls-13" d="M160,249.08a2.81,2.81,0,0,1-1.79-.54,3.55,3.55,0,0,1-1.08-1.68l-8.58-24.26a2.34,2.34,0,0,1,.18-2.21,2.48,2.48,0,0,1,2.16-.9,2.61,2.61,0,0,1,1.72.51,3.51,3.51,0,0,1,1,1.62L161,243.54h-1.64l7.72-21.88a3.77,3.77,0,0,1,1-1.64,2.33,2.33,0,0,1,1.6-.53,2.2,2.2,0,0,1,1.56.53,4.18,4.18,0,0,1,1,1.68l7.47,21.84h-1.44l7.51-21.92a3.66,3.66,0,0,1,1-1.6,2.45,2.45,0,0,1,1.68-.53,2.17,2.17,0,0,1,1.93.9,2.37,2.37,0,0,1,.17,2.21l-8.67,24.3a3.62,3.62,0,0,1-1.06,1.64,2.71,2.71,0,0,1-1.77.54,2.68,2.68,0,0,1-1.76-.54,3.62,3.62,0,0,1-1.07-1.68l-7.14-20.36H170l-7.22,20.4a3.7,3.7,0,0,1-1.05,1.64A2.59,2.59,0,0,1,160,249.08Z" transform="translate(-0.04)"/><path class="cls-13" d="M198.14,249.08a2.54,2.54,0,0,1-1.95-.72,2.79,2.79,0,0,1-.68-2V222.19a2.79,2.79,0,0,1,.68-2,3.1,3.1,0,0,1,3.9,0,2.79,2.79,0,0,1,.67,2v9.69h14.9v-9.69a2.79,2.79,0,0,1,.68-2,3.1,3.1,0,0,1,3.9,0,2.79,2.79,0,0,1,.68,2v24.18a2.79,2.79,0,0,1-.68,2,3,3,0,0,1-3.9,0,2.79,2.79,0,0,1-.68-2v-10.1h-14.9v10.1a2.87,2.87,0,0,1-.65,2A2.55,2.55,0,0,1,198.14,249.08Z" transform="translate(-0.04)"/><path class="cls-13" d="M230,248.75A2.81,2.81,0,0,1,228,248a2.84,2.84,0,0,1-.71-2.07V222.6a2.84,2.84,0,0,1,.71-2.07,2.81,2.81,0,0,1,2.08-.72h14.65a2.18,2.18,0,0,1,1.58.54,2,2,0,0,1,.55,1.52,1.92,1.92,0,0,1-2.13,2.13h-12.4v8h11.5a2.17,2.17,0,0,1,1.6.54,2.12,2.12,0,0,1,.53,1.56,2.15,2.15,0,0,1-.53,1.56,2.2,2.2,0,0,1-1.6.53h-11.5v8.41h12.4a2.18,2.18,0,0,1,1.58.54,2,2,0,0,1,.55,1.56,2.08,2.08,0,0,1-.55,1.56,2.22,2.22,0,0,1-1.58.53Z" transform="translate(-0.04)"/><path class="cls-13" d="M261.14,249.08a2.54,2.54,0,0,1-1.95-.72,2.86,2.86,0,0,1-.68-2V233.85l1.11,3.16-9.89-13.91a2.28,2.28,0,0,1-.47-1.58,2.16,2.16,0,0,1,.67-1.44,2.37,2.37,0,0,1,1.73-.59,2.76,2.76,0,0,1,1.49.41,4.31,4.31,0,0,1,1.3,1.27l7.34,10.42h-1.15L268,221.17a5.24,5.24,0,0,1,1.27-1.3,2.88,2.88,0,0,1,1.52-.38,2.37,2.37,0,0,1,1.67.55,1.88,1.88,0,0,1,.61,1.38,3,3,0,0,1-.59,1.72L262.7,237l1.06-3.16v12.48C263.76,248.16,262.89,249.08,261.14,249.08Z" transform="translate(-0.04)"/></g></g></svg>