<?xml version="1.0" encoding="utf-8"?>
<!-- Generator: Adobe Illustrator 27.0.0, SVG Export Plug-In . SVG Version: 6.00 Build 0)  -->
<svg version="1.1" id="Layer_2_00000108269953381918389780000007988278957284681352_" xmlns="http://www.w3.org/2000/svg"
    xmlns:xlink="http://www.w3.org/1999/xlink" x="0px" y="0px" viewBox="0 0 51 37.8"
    style="enable-background:new 0 0 51 37.8;" xml:space="preserve">
    <style type="text/css">
        .st0 {
            fill: #2C5364;
        }
    </style>
    <path class="st0" d="M21.5,1.5c0.6,1.3,0,2.8-1.2,3.5C14,8.1,9.5,12.2,9.5,17.9s5.3,6.9,10.8,8.2c1,0.2,2.1,2.4,2.1,4.3
	c0,4.3-3.4,7.2-8.2,7.2C7.1,37.7,0,31.9,0,21.3S8.8,3.5,18.3,0.1C19.6-0.3,21,0.3,21.5,1.5L21.5,1.5z" />
    <path class="st0" d="M49.9,1.6c0.6,1.3,0,2.8-1.3,3.4c-6.4,3.1-10.9,7.2-10.9,12.9s5.5,6.9,10.9,8.2c1,0.2,2.1,2.4,2.1,4.3
	c0,4.3-3.5,7.2-8.2,7.2c-7.1,0-14.1-5.8-14.1-16.4S37.2,3.5,46.7,0.2C48-0.3,49.4,0.3,49.9,1.6L49.9,1.6z" />
</svg>