<?xml version="1.0" encoding="utf-8"?>
<!-- Generator: Adobe Illustrator 27.0.0, SVG Export Plug-In . SVG Version: 6.00 Build 0)  -->
<svg version="1.1" id="Layer_2_00000035513548895845841300000013239098361788786108_" xmlns="http://www.w3.org/2000/svg"
    xmlns:xlink="http://www.w3.org/1999/xlink" x="0px" y="0px" viewBox="0 0 51.3 38.4"
    style="enable-background:new 0 0 51.3 38.4;" xml:space="preserve">
    <style type="text/css">
        .st0 {
            fill: #2C5364;
        }
    </style>
    <g id="Layer_1-2">
        <path class="st0" d="M0.7,36.2c-0.6-1.3,0-2.8,1.3-3.4c6.4-3.1,10.8-7.2,10.8-13s-5.2-6.9-10.5-8.1C1,11.5,0,9.2,0,7.3
		C0,2.9,3.4,0,8.1,0c7.1,0,14.2,5.8,14.2,16.5S13.4,34.3,3.9,37.7C2.7,38.1,1.2,37.5,0.7,36.2C0.7,36.2,0.7,36.2,0.7,36.2z
		 M29.1,36.2c-0.5-1.3,0-2.8,1.2-3.4c6.3-3.1,10.8-7.2,10.8-13s-5.3-6.9-10.7-8.1c-1.1-0.3-2.3-2.6-2.3-4.5c0-4.4,3.4-7.3,8.2-7.3
		c7.1,0,14,5.8,14,16.5s-8.8,17.9-18.2,21.2C31.1,38.1,29.6,37.5,29.1,36.2L29.1,36.2L29.1,36.2z" />
    </g>
</svg>